<svg width="24" height="25" viewBox="0 0 24 25" fill="none" xmlns="http://www.w3.org/2000/svg">
<path d="M20.8375 2.39844H3.1C2.80826 2.39844 2.52847 2.51469 2.32218 2.72163C2.11589 2.92857 2 3.20924 2 3.50189L2 21.2951C2 21.5877 2.11589 21.8684 2.32218 22.0754C2.52847 22.2823 2.80826 22.3985 3.1 22.3985H12.6563V14.664H10.061V11.6364H12.6563V9.40882C12.6563 6.82605 14.2306 5.41914 16.5269 5.41914C17.3007 5.41745 18.0741 5.45659 18.8438 5.53639V8.2364H17.2625C16.0113 8.2364 15.7672 8.82951 15.7672 9.70537V11.633H18.7578L18.3694 14.6606H15.75V22.3985H20.8375C21.1293 22.3985 21.4091 22.2823 21.6153 22.0754C21.8216 21.8684 21.9375 21.5877 21.9375 21.2951V3.50189C21.9375 3.20924 21.8216 2.92857 21.6153 2.72163C21.4091 2.51469 21.1293 2.39844 20.8375 2.39844Z" fill="white"/>
</svg>
