<svg width="24" height="24" viewBox="0 0 24 24" fill="none" xmlns="http://www.w3.org/2000/svg">
<rect width="24" height="24" fill="white"/>
<path d="M11.679 2.23257C11.78 1.92248 12.22 1.92248 12.321 2.23257L14.4503 8.76708C14.4955 8.90576 14.6251 8.99965 14.7713 8.99965H21.6618C21.9888 8.99965 22.1248 9.41687 21.8602 9.60852L16.2857 13.6471C16.1674 13.7328 16.1179 13.8847 16.1631 14.0234L18.2924 20.5579C18.3934 20.868 18.0375 21.1258 17.7729 20.9342L12.1984 16.8956C12.0801 16.8099 11.9199 16.8099 11.8016 16.8956L6.22707 20.9342C5.96254 21.1258 5.60661 20.868 5.70765 20.5579L7.83693 14.0234C7.88212 13.8847 7.83262 13.7328 7.71431 13.6471L2.13979 9.60852C1.87525 9.41688 2.0112 8.99965 2.33819 8.99965H9.22868C9.37491 8.99965 9.50451 8.90576 9.5497 8.76708L11.679 2.23257Z" stroke="#283342" stroke-width="1.5"/>
</svg>
