<svg width="24" height="25" viewBox="0 0 24 25" fill="none" xmlns="http://www.w3.org/2000/svg">
<path d="M16.4805 2.39844H7.51913C4.47588 2.39844 2 4.87444 2 7.91768V16.8791C2 19.9224 4.47588 22.3983 7.51913 22.3983H16.4805C19.524 22.3983 21.9999 19.9223 21.9999 16.8791V7.91768C22 4.87444 19.524 2.39844 16.4805 2.39844ZM20.2255 16.8791C20.2255 18.944 18.5455 20.6238 16.4806 20.6238H7.51913C5.45433 20.624 3.77449 18.944 3.77449 16.8791V7.91768C3.77449 5.85289 5.45433 4.17292 7.51913 4.17292H16.4805C18.5454 4.17292 20.2254 5.85289 20.2254 7.91768L20.2255 16.8791Z" fill="white"/>
<path d="M11.9992 7.24512C9.1575 7.24512 6.8457 9.55692 6.8457 12.3986C6.8457 15.2401 9.1575 17.5518 11.9992 17.5518C14.8408 17.5518 17.1526 15.2401 17.1526 12.3986C17.1526 9.55692 14.8408 7.24512 11.9992 7.24512ZM11.9992 15.7772C10.1361 15.7772 8.62019 14.2616 8.62019 12.3985C8.62019 10.5353 10.136 9.01948 11.9992 9.01948C13.8624 9.01948 15.3781 10.5353 15.3781 12.3985C15.3781 14.2616 13.8623 15.7772 11.9992 15.7772Z" fill="white"/>
<path d="M17.3697 5.74048C17.0278 5.74048 16.6919 5.87889 16.4505 6.1214C16.2078 6.36273 16.0684 6.6987 16.0684 7.04177C16.0684 7.38377 16.208 7.71962 16.4505 7.96214C16.6918 8.20347 17.0278 8.34306 17.3697 8.34306C17.7127 8.34306 18.0475 8.20347 18.29 7.96214C18.5325 7.71962 18.6709 7.38365 18.6709 7.04177C18.6709 6.6987 18.5325 6.36273 18.29 6.1214C18.0487 5.87889 17.7127 5.74048 17.3697 5.74048Z" fill="white"/>
</svg>
