<svg width="24" height="25" viewBox="0 0 24 25" fill="none" xmlns="http://www.w3.org/2000/svg">
<path d="M21.9462 7.87189C21.7671 15.639 16.5752 21.0423 8.69785 21.38C5.47529 21.5488 3.14789 20.5357 0.999512 19.3537C3.32692 19.6915 6.37045 18.8473 7.98173 17.4964C5.65432 17.3275 4.22207 16.1456 3.50595 14.2882C4.22207 14.4571 4.9382 14.2882 5.47529 14.2882C3.32692 13.6128 1.89467 12.4309 1.71564 9.72925C2.25273 10.067 2.96885 10.2358 3.68498 10.2358C2.0737 9.39155 0.999512 6.18338 2.25273 4.15717C4.58014 6.52108 7.44463 8.54729 12.0994 8.885C10.8462 4.15717 17.6495 1.62441 20.335 4.83257C21.5882 4.66372 22.4833 4.15717 23.3785 3.81947C23.0204 5.00143 22.3043 5.67683 21.4091 6.35223C22.3043 6.18338 23.1994 6.01453 23.9156 5.67683C23.7365 6.52108 22.8413 7.19649 21.9462 7.87189Z" fill="white"/>
</svg>
