<svg width="24" height="25" viewBox="0 0 24 25" fill="none" xmlns="http://www.w3.org/2000/svg">
<path d="M21.2205 6.6067C20.4985 5.7485 19.1656 5.39844 16.6201 5.39844H7.37974C4.77594 5.39844 3.42045 5.77108 2.70123 6.68476C2 7.5756 2 8.88818 2 10.7048V14.1673C2 17.6868 2.832 19.4737 7.37974 19.4737H16.6201C18.8276 19.4737 20.0508 19.1648 20.8422 18.4074C21.6537 17.6308 22 16.3627 22 14.1673V10.7048C22 8.78902 21.9457 7.4687 21.2205 6.6067ZM14.8401 12.9141L10.6441 15.1071C10.5503 15.1561 10.4477 15.1804 10.3452 15.1804C10.2292 15.1804 10.1135 15.1492 10.011 15.0871C9.81793 14.9702 9.70006 14.761 9.70006 14.5353V10.1634C9.70006 9.93812 9.81761 9.72908 10.0103 9.61205C10.203 9.49502 10.4426 9.48702 10.6426 9.59089L14.8386 11.7697C15.0521 11.8806 15.1861 12.101 15.1865 12.3414C15.1867 12.5821 15.0532 12.8028 14.8401 12.9141Z" fill="white"/>
</svg>
